<svg width="106" height="107" viewBox="0 0 106 107" fill="none" xmlns="http://www.w3.org/2000/svg">
<rect y="0.5" width="106" height="106" rx="24" fill="#3461FF"/>
<path d="M72.2841 47.7501L47.25 72.7823C46.983 73.0494 46.6661 73.2612 46.3172 73.4057C45.9684 73.5502 45.5945 73.6246 45.2169 73.6246C44.8392 73.6246 44.4653 73.5502 44.1165 73.4057C43.7676 73.2612 43.4507 73.0494 43.1837 72.7823L33.716 63.3164C33.4489 63.0494 33.2371 62.7324 33.0926 62.3836C32.948 62.0347 32.8737 61.6608 32.8737 61.2832C32.8737 60.9056 32.948 60.5317 33.0926 60.1829C33.2371 59.834 33.4489 59.517 33.716 59.2501L38.9574 54.0086C39.0242 53.9417 39.1035 53.8887 39.1907 53.8526C39.278 53.8164 39.3715 53.7978 39.466 53.7978C39.5604 53.7978 39.6539 53.8164 39.7412 53.8526C39.8285 53.8887 39.9077 53.9417 39.9745 54.0086L46.233 60.2671C46.3727 60.4068 46.5398 60.5161 46.7237 60.5883C46.9076 60.6606 47.1044 60.6941 47.3019 60.6868C47.4993 60.6796 47.6932 60.6317 47.8713 60.5462C48.0494 60.4607 48.208 60.3394 48.3371 60.1898C48.5732 59.905 48.6932 59.5417 48.6732 59.1724C48.6533 58.803 48.4947 58.4547 48.2293 58.1971L42.0067 51.9745C41.8723 51.8398 41.7968 51.6572 41.7968 51.4669C41.7968 51.2766 41.8723 51.094 42.0067 50.9593L44.7021 48.264C44.7688 48.1971 44.8481 48.1441 44.9353 48.1079C45.0226 48.0718 45.1161 48.0532 45.2106 48.0532C45.305 48.0532 45.3986 48.0718 45.4858 48.1079C45.5731 48.1441 45.6523 48.1971 45.7191 48.264L51.9776 54.5225C52.1174 54.6621 52.2844 54.7715 52.4683 54.8437C52.6522 54.9159 52.8491 54.9495 53.0465 54.9422C53.244 54.935 53.4378 54.8871 53.6159 54.8016C53.794 54.7161 53.9526 54.5948 54.0817 54.4452C54.3178 54.1604 54.4378 53.7971 54.4179 53.4277C54.3979 53.0584 54.2393 52.7101 53.9739 52.4525L47.7585 46.2245C47.6241 46.0898 47.5486 45.9072 47.5486 45.7169C47.5486 45.5266 47.6241 45.344 47.7585 45.2093L50.4538 42.514C50.5886 42.3795 50.7711 42.3041 50.9615 42.3041C51.1518 42.3041 51.3343 42.3795 51.4691 42.514L57.7276 48.7725C57.8674 48.9124 58.0345 49.022 58.2186 49.0944C58.4027 49.1668 58.5997 49.2004 58.7974 49.1932C58.9951 49.1859 59.1891 49.138 59.3674 49.0523C59.5457 48.9666 59.7044 48.845 59.8335 48.6952C60.0694 48.4102 60.1891 48.0468 60.1688 47.6774C60.1485 47.308 59.9896 46.9599 59.7239 46.7025L53.5085 40.4745C53.3741 40.3398 53.2986 40.1572 53.2986 39.9669C53.2986 39.7766 53.3741 39.594 53.5085 39.4593L58.75 34.2178C59.017 33.9508 59.334 33.7389 59.6828 33.5944C60.0317 33.4499 60.4056 33.3755 60.7832 33.3755C61.1608 33.3755 61.5347 33.4499 61.8836 33.5944C62.2324 33.7389 62.5494 33.9508 62.8163 34.2178L72.2841 43.6837C72.5511 43.9507 72.763 44.2677 72.9075 44.6165C73.052 44.9654 73.1264 45.3393 73.1264 45.7169C73.1264 46.0945 73.052 46.4684 72.9075 46.8173C72.763 47.1661 72.5511 47.4831 72.2841 47.7501Z" fill="white"/>
</svg>
